<?xml version="1.0" encoding="utf-8"?>
<!-- Generator: Adobe Illustrator 22.0.0, SVG Export Plug-In . SVG Version: 6.00 Build 0)  -->
<svg version="1.1" id="Capa_5" xmlns="http://www.w3.org/2000/svg" xmlns:xlink="http://www.w3.org/1999/xlink" x="0px" y="0px"
	 viewBox="0 0 781.2 741" style="enable-background:new 0 0 781.2 741;" xml:space="preserve">
<style type="text/css">
	.st0{fill:none;stroke:#FFFFFF;stroke-width:30;stroke-linecap:round;stroke-miterlimit:10;}
	.st1{fill:#FFFFFF;stroke:#FFFFFF;stroke-miterlimit:10;}
	.st2{fill:#FFEEC0;stroke:#FFFFFF;stroke-miterlimit:10;}
	.st3{fill:none;stroke:#FFFFFF;stroke-width:25;stroke-linecap:round;stroke-miterlimit:10;}
</style>
<path class="st0" d="M175.2,104.1C237.9,48.7,320.4,15,410.7,15C607,15,766.2,174.2,766.2,370.5S607,726,410.7,726
	S55.2,566.8,55.2,370.5c0-63.6,16.7-123.3,46-175"/>
<path class="st1" d="M610,405.9c0.8-11.5-8-21.3-19-21.3H410.7H230.3c-11,0-19.7,9.8-19,21.3c1.6,23.7,8.5,63.2,35.1,97.3
	c3.6,4.6,9,7.4,14.7,7.4h298.9c5.7,0,11.1-2.7,14.7-7.4C601.5,469,608.4,429.6,610,405.9z"/>
<path class="st1" d="M505.2,361.7l-35.4-41.9H247.4c-11,0-20,9-20,20v17.8c0,11,9,20,20,20h320c11,0,20-9,20-20v-17.8
	c0-11-9-20-20-20h-18.7l-30.3,41.4C515,365.9,509,366.1,505.2,361.7z"/>
<path class="st2" d="M234.2,280.3h353c5.1,0,9.2,5,9.2,11.2v0c0,13.2-8.8,23.9-19.7,23.9h-13.2c-2.6,0-5.1,1.4-6.8,3.7l-34.9,47.6
	c-3.5,4.7-9.5,5-13.2,0.6l-41.1-48.8c-1.7-2-4-3.2-6.4-3.2H244.7c-10.9,0-19.7-10.7-19.7-23.9v0C225,285.3,229.1,280.3,234.2,280.3z
	"/>
<path class="st1" d="M410.7,88.2c-170.6,0-196.1,114.2-199.3,162.7c-0.8,11.5,8,21.3,19,21.3h180.4H591c11,0,19.7-9.8,19-21.3
	C606.8,202.5,581.3,88.2,410.7,88.2z"/>
<path class="st0" d="M637.5,533.5H248.6c-16.4,0-30.6-11.4-34.3-27.4l-91.9-404.5c-3.2-13.9-15.6-23.8-29.8-23.8H15"/>
<circle class="st3" cx="345.2" cy="605.5" r="36.7"/>
<circle class="st3" cx="540.4" cy="605.5" r="36.7"/>
</svg>
