<?xml version="1.0" encoding="utf-8"?>
<!-- Generator: Adobe Illustrator 22.0.0, SVG Export Plug-In . SVG Version: 6.00 Build 0)  -->
<svg version="1.1" xmlns="http://www.w3.org/2000/svg" xmlns:xlink="http://www.w3.org/1999/xlink" x="0px" y="0px"
	 viewBox="0 0 691.3 636.2" style="enable-background:new 0 0 691.3 636.2;" xml:space="preserve">
<style type="text/css">
	.st0{fill:#912C2C;stroke:#000000;stroke-width:12;stroke-miterlimit:10;}
	.st1{fill:#7C1E1E;}
	.st2{fill:none;stroke:#000000;stroke-width:12;stroke-miterlimit:10;}
	.st3{fill:#EFA335;stroke:#000000;stroke-width:12;stroke-miterlimit:10;}
	.st4{fill:#A0E557;}
	.st5{fill:#93CC4A;}
	.st6{fill:none;stroke:#050505;stroke-width:12;stroke-miterlimit:10;}
	.st7{fill:#FCCF3F;}
	.st8{fill:#EFC03C;}
	.st9{fill:#FC4E51;}
	.st10{fill:#EA3942;}
	.st11{fill:#EFA335;}
	.st12{fill:#FD8F31;}
	.st13{fill:none;stroke:#020202;stroke-width:11;stroke-miterlimit:10;}
	.st14{stroke:#020202;stroke-width:12;stroke-miterlimit:10;}
	.st15{fill:#FFFFFF;stroke:#000000;stroke-width:12;stroke-miterlimit:10;}
	.st16{fill:#FFFFFF;stroke:#FFFFFF;stroke-miterlimit:10;}
</style>
<g id="Capa_2">
	<path class="st0" d="M484.4,328.8h-320c-11,0-20-9-20-20V291c0-11,9-20,20-20h320c11,0,20,9,20,20v17.8
		C504.4,319.8,495.4,328.8,484.4,328.8z"/>
	<path class="st1" d="M491.4,329.8h-8.8c-4.7,0-8.5-3.8-8.5-8.5v-37.5c0-4.7,3.8-8.5,8.5-8.5h13.3c4.7,0,8.5,3.8,8.5,8.5v32.9
		C504.4,324,498.6,329.8,491.4,329.8z"/>
	<path class="st2" d="M484.4,328.8h-320c-11,0-20-9-20-20V291c0-11,9-20,20-20h320c11,0,20,9,20,20v17.8
		C504.4,319.8,495.4,328.8,484.4,328.8z"/>
	<path class="st3" d="M525.4,348.8c0.8-11.5-8-21.3-19-21.3H326.1H145.7c-11,0-19.7,9.8-19,21.3c1.6,23.7,8.5,63.2,35.1,97.3
		c3.6,4.6,9,7.4,14.7,7.4h298.9c5.7,0,11.1-2.7,14.7-7.4C516.9,412,523.8,372.6,525.4,348.8z"/>
	<path class="st4" d="M399.4,299.7c-23.7,0-26.9-15.7-37.2-15.7c-11.8,0-23.3,15.7-35.1,15.7c-13,0-32.3-14.5-40.4-15.7
		c-10.7-1.6-25.9,15.7-37.8,15.7c-11.9,0-25.9-14.3-37.8-15.7c-13.2-1.6-46.7,15.7-56.6,15.7c-8.3,0-19-9-19-16.7v-16.5
		c0-8.7,5.4-15.8,12-15.8H501c6.6,0,12,7.1,12,15.8c0,0,0.3,7.4,0.3,16.5c0,5.1-8.2,16-15.5,16.7c-19.5,1.8-40.9-15.7-60.1-15.7
		C426.2,284,422.9,299.7,399.4,299.7z"/>
	<path class="st5" d="M497,298.3h-14.4c-4.7,0-8.5-3.8-8.5-8.5v-37.5c0-4.7,3.8-8.5,8.5-8.5h19c4.7,0,8.5,3.8,8.5,8.5v32.9
		C510.1,292.4,504.3,298.3,497,298.3z"/>
	<path class="st6" d="M399.4,299.7c-23.7,0-26.9-15.7-37.2-15.7c-11.8,0-23.3,15.7-35.1,15.7c-13,0-32.3-14.5-40.4-15.7
		c-10.7-1.6-25.9,15.7-37.8,15.7c-11.9,0-25.9-14.3-37.8-15.7c-13.2-1.6-46.7,15.7-56.6,15.7c-8.3,0-19-9-19-16.7v-16.5
		c0-8.7,5.4-15.8,12-15.8H501c6.6,0,12,7.1,12,15.8c0,0,0.3,7.4,0.3,16.5c0,5.1-8.2,16-15.5,16.7c-19.5,1.8-40.9-15.7-60.1-15.7
		C426.2,284,422.9,299.7,399.4,299.7z"/>
	<path class="st7" d="M147.9,221.5h353c5.1,0,9.2,5,9.2,11.2v0c0,13.2-8.8,23.9-19.7,23.9h-13.2c-2.6,0-5.1,1.4-6.8,3.7l-34.9,47.6
		c-3.5,4.7-9.5,5-13.2,0.6l-41.1-48.8c-1.7-2-4-3.2-6.4-3.2H158.4c-10.9,0-19.7-10.7-19.7-23.9v0
		C138.8,226.5,142.9,221.5,147.9,221.5z"/>
	<path class="st8" d="M491.4,259.5h-8.8c-4.7,0-8.5-3.8-8.5-8.5v-37.5c0-4.7,3.8-8.5,8.5-8.5h13.3c4.7,0,8.5,3.8,8.5,8.5v32.9
		C504.4,253.6,498.6,259.5,491.4,259.5z"/>
	<path class="st2" d="M147.9,221.5h353c5.1,0,9.2,5,9.2,11.2v0c0,13.2-8.8,23.9-19.7,23.9h-13.2c-2.6,0-5.1,1.4-6.8,3.7l-34.9,47.6
		c-3.5,4.7-9.5,5-13.2,0.6l-41.1-48.8c-1.7-2-4-3.2-6.4-3.2H158.4c-10.9,0-19.7-10.7-19.7-23.9v0
		C138.8,226.5,142.9,221.5,147.9,221.5z"/>
	<path class="st9" d="M484.4,223.5h-320c-11,0-20-9-20-20V189c0-11,9-20,20-20h320c11,0,20,9,20,20v14.5
		C504.4,214.5,495.4,223.5,484.4,223.5z"/>
	<path class="st10" d="M491.4,223.5h-8.8c-4.7,0-8.5-3.8-8.5-8.5v-37.5c0-4.7,3.8-8.5,8.5-8.5h13.3c4.7,0,8.5,3.8,8.5,8.5v32.9
		C504.4,217.6,498.6,223.5,491.4,223.5z"/>
	<path class="st2" d="M484.4,223.5h-320c-11,0-20-9-20-20V189c0-11,9-20,20-20h320c11,0,20,9,20,20v14.5
		C504.4,214.5,495.4,223.5,484.4,223.5z"/>
	<path class="st11" d="M326.1,5.5c-170.6,0-196.1,114.2-199.3,162.7c-0.8,11.5,8,21.3,19,21.3h180.4h180.4c11,0,19.7-9.8,19-21.3
		C522.2,119.7,496.7,5.5,326.1,5.5z"/>
	<path class="st12" d="M326.1,5.5c-62,0,72.7,20.5,122,78c19.2,22.4,46.8,85.7,12.3,84.7c-99.7-2.9-305.3,0-333.7,0
		c-11,0,8,21.3,19,21.3h180.4h180.4c11,0,19.7-9.8,19-21.3C522.2,119.7,496.7,5.5,326.1,5.5z"/>
	<path class="st13" d="M326.1,5.5c-170.6,0-196.1,114.2-199.3,162.7c-0.8,11.5,8,21.3,19,21.3h180.4h180.4c11,0,19.7-9.8,19-21.3
		C522.2,119.7,496.7,5.5,326.1,5.5z"/>
</g>
<g id="Capa_3">
	<g>
		<path class="st14" d="M223,476.8c0,2.6-1.5,3.8-4.5,3.7c-4.9-0.3-11.9-0.4-20.9-0.4c-3.3,0-5.2,0.2-5.7,0.6
			c-1.1,0.7-1.6,2.6-1.6,5.7c0,4.8,0.4,12,1.1,21.6c0.8,9.6,1.1,16.9,1.1,21.6c0,3-1.7,4.8-5.1,5.3c-4.6,0.8-12.6,1.2-24,1.2
			c-19.1,0-28.7-1.5-28.7-4.5c0-4,0.8-11.5,2.3-22.6c1.5-11.1,2.3-19.2,2.3-24.4c0-3.1-1.2-4.7-3.5-4.7c-11.1,0-27.7,0.3-49.7,1
			c-22.1,0.7-38.7,1-49.7,1c-8.2,0-12.3-8.4-12.3-25.2c0-13.3,1.3-21.5,3.9-24.6c9.4-10.8,23-27.3,40.6-49.6
			c22-30.9,39.1-55.6,51.3-74c3.8-6,9.7-15,17.6-26.9c2.2-2.9,4.3-4.3,6.4-4.3c9.4,0,23.9,3.6,43.3,10.7c4.2,1.5,6.4,4,6.4,7.6
			c0,7-0.5,17.5-1.5,31.5c-1,14-1.5,24.5-1.5,31.5c0,6.3-0.1,17.1-0.2,32.4c-0.3,13.8-0.3,24.6-0.2,32.4v16.6
			c3.6,0,8.8-0.3,15.7-0.8c6.9-0.5,12.1-0.8,15.5-0.8c1.1,0,1.6,1.2,1.6,3.5c0,3.8,0.1,9.6,0.2,17.3C222.9,467,223,472.8,223,476.8z
			 M146.5,330.6c0-1.1-0.4-1.9-1.2-2.5c-1.2,0-3,2.3-5.3,7c-1.4,3-2.8,5.9-4.3,8.8c-23.7,31.7-47.3,63.7-71,96
			c0.7,1.5,6.2,2.3,16.6,2.3h8.4c22.8,0,39.9-0.3,51.1-1c0.1-16.8,0.3-33.6,0.6-50.4c0.5-21.5,1.7-37.9,3.5-49.2
			C146,334.9,146.5,331.3,146.5,330.6z"/>
	</g>
	<g>
		<path class="st15" d="M205.1,476.8c0,2.6-1.5,3.8-4.5,3.7c-4.9-0.3-11.9-0.4-20.9-0.4c-3.3,0-5.2,0.2-5.7,0.6
			c-1.1,0.7-1.6,2.6-1.6,5.7c0,4.8,0.4,12,1.1,21.6c0.8,9.6,1.1,16.9,1.1,21.6c0,3-1.7,4.8-5.1,5.3c-4.6,0.8-12.6,1.2-24,1.2
			c-19.1,0-28.7-1.5-28.7-4.5c0-4,0.8-11.5,2.3-22.6c1.5-11.1,2.3-19.2,2.3-24.4c0-3.1-1.2-4.7-3.5-4.7c-11.1,0-27.7,0.3-49.7,1
			c-22.1,0.7-38.7,1-49.7,1c-8.2,0-12.3-8.4-12.3-25.2c0-13.3,1.3-21.5,3.9-24.6c9.4-10.8,23-27.3,40.6-49.6
			c22-30.9,39.1-55.6,51.3-74c3.8-6,9.7-15,17.6-26.9c2.2-2.9,4.3-4.3,6.4-4.3c9.4,0,23.9,3.6,43.3,10.7c4.2,1.5,6.4,4,6.4,7.6
			c0,7-0.5,17.5-1.5,31.5c-1,14-1.5,24.5-1.5,31.5c0,6.3-0.1,17.1-0.2,32.4c-0.3,13.8-0.3,24.6-0.2,32.4v16.6
			c3.6,0,8.8-0.3,15.7-0.8c6.9-0.5,12.1-0.8,15.5-0.8c1.1,0,1.6,1.2,1.6,3.5c0,3.8,0.1,9.6,0.2,17.3
			C205.1,467,205.1,472.8,205.1,476.8z M128.6,330.6c0-1.1-0.4-1.9-1.2-2.5c-1.2,0-3,2.3-5.3,7c-1.4,3-2.8,5.9-4.3,8.8
			c-23.7,31.7-47.3,63.7-71,96c0.7,1.5,6.2,2.3,16.6,2.3h8.4c22.8,0,39.9-0.3,51.1-1c0.1-16.8,0.3-33.6,0.6-50.4
			c0.5-21.5,1.7-37.9,3.5-49.2C128.1,334.9,128.6,331.3,128.6,330.6z"/>
	</g>
	<polygon points="252.2,409.7 691.3,254.1 628.7,575.1 391.7,566.1 313.7,636.2 	"/>
	<g>
		<path class="st16" d="M415.5,405.6L375,533.4c-5.5,17.5-13,26.3-22.4,26.3c-9.1,0-15.3-5-18.6-14.9l11-10.2
			c0.9,8.6,3.4,12.9,7.4,12.9c4.6,0,8.4-5,11.2-14.9l2.4-8.1l-35.6-118.8h35.1l17.8,66.6l20.2-66.6H415.5z"/>
		<path class="st16" d="M462,402.6c29.2,0,43.8,19.8,43.8,59.3s-14.6,59.3-43.8,59.3c-29.3,0-43.9-19.8-43.9-59.3
			S432.7,402.6,462,402.6z M461.9,412.6c-7.1,0-10.6,16.4-10.6,49.3c0,32.9,3.5,49.3,10.6,49.3c7.1,0,10.7-16.4,10.7-49.3
			C472.6,429.1,469,412.6,461.9,412.6z"/>
		<path class="st16" d="M603.2,402.6v116.1h-32v-18.1c-7.4,13.5-16.8,20.2-28.4,20.2c-15.6,0-23.4-9.7-23.4-29.2v-86.1
			c10.7-0.6,21.4-1.6,32-2.9v88c0,7.6,1.8,11.5,5.4,11.5c9.6,0,14.4-13.2,14.4-39.5v-57.1C581.9,405,592.6,404,603.2,402.6z"/>
	</g>
</g>
</svg>
